HIERARCHY
ROOT Hips
{
	OFFSET 0.00000 0.00000 0.00000
	CHANNELS 6 Xposition Yposition Zposition Zrotation Yrotation Xrotation 
	JOINT LHipJoint
	{
		OFFSET 0 0 0
		CHANNELS 3 Zrotation Yrotation Xrotation
		JOINT LeftUpLeg
		{
			OFFSET 2.36090 -1.39315 1.24752
			CHANNELS 3 Zrotation Yrotation Xrotation
			JOINT LeftLeg
			{
				OFFSET 2.06810 -5.68207 0.00000
				CHANNELS 3 Zrotation Yrotation Xrotation
				JOINT LeftFoot
				{
					OFFSET 2.46631 -6.77613 0.00000
					CHANNELS 3 Zrotation Yrotation Xrotation
					JOINT LeftToeBase
					{
						OFFSET 0.26031 -0.71520 1.99545
						CHANNELS 3 Zrotation Yrotation Xrotation
						End Site
						{
							OFFSET 0.00000 -0.00000 1.05957
						}
					}
				}
			}
		}
	}
	JOINT RHipJoint
	{
		OFFSET 0 0 0
		CHANNELS 3 Zrotation Yrotation Xrotation
		JOINT RightUpLeg
		{
			OFFSET -2.25243 -1.39315 1.24752
			CHANNELS 3 Zrotation Yrotation Xrotation
			JOINT RightLeg
			{
				OFFSET -2.17343 -5.97145 0.00000
				CHANNELS 3 Zrotation Yrotation Xrotation
				JOINT RightFoot
				{
					OFFSET -2.52372 -6.93386 0.00000
					CHANNELS 3 Zrotation Yrotation Xrotation
					JOINT RightToeBase
					{
						OFFSET -0.22538 -0.61923 2.11447
						CHANNELS 3 Zrotation Yrotation Xrotation
						End Site
						{
							OFFSET -0.00000 -0.00000 1.10506
						}
					}
				}
			}
		}
	}
	JOINT LowerBack
	{
		OFFSET 0 0 0
		CHANNELS 3 Zrotation Yrotation Xrotation
		JOINT Spine
		{
			OFFSET 0.01594 2.13103 0.08007
			CHANNELS 3 Zrotation Yrotation Xrotation
			JOINT Spine1
			{
				OFFSET 0.01393 2.09723 0.18338
				CHANNELS 3 Zrotation Yrotation Xrotation
				JOINT Neck
				{
					OFFSET 0 0 0
					CHANNELS 3 Zrotation Yrotation Xrotation
					JOINT Neck1
					{
						OFFSET 0.05351 1.38915 0.32494
						CHANNELS 3 Zrotation Yrotation Xrotation
						JOINT Head
						{
							OFFSET 0.00711 1.45992 -0.21666
							CHANNELS 3 Zrotation Yrotation Xrotation
							End Site
							{
								OFFSET -0.00433 1.47702 -0.11056
							}
						}
					}
				}
				JOINT LeftShoulder
				{
					OFFSET 0 0 0
					CHANNELS 3 Zrotation Yrotation Xrotation
					JOINT LeftArm
					{
						OFFSET 2.87198 0.92249 0.11132
						CHANNELS 3 Zrotation Yrotation Xrotation
						JOINT LeftForeArm
						{
							OFFSET 5.52731 -0.00000 0.00000
							CHANNELS 3 Zrotation Yrotation Xrotation
							JOINT LeftHand
							{
								OFFSET 3.11059 -0.00000 0.00000
								CHANNELS 3 Zrotation Yrotation Xrotation
								JOINT LeftFingerBase
								{
									OFFSET 0 0 0
									CHANNELS 3 Zrotation Yrotation Xrotation
									JOINT LeftHandIndex1
									{
										OFFSET 0.41963 -0.00000 0.00000
										CHANNELS 3 Zrotation Yrotation Xrotation
										End Site
										{
											OFFSET 0.33831 -0.00000 0.00000
										}
									}
								}
								JOINT LThumb
								{
									OFFSET 0 0 0
									CHANNELS 3 Zrotation Yrotation Xrotation
									End Site
									{
										OFFSET 0.34348 -0.00000 0.34348
									}
								}
							}
						}
					}
				}
				JOINT RightShoulder
				{
					OFFSET 0 0 0
					CHANNELS 3 Zrotation Yrotation Xrotation
					JOINT RightArm
					{
						OFFSET -2.94710 0.68072 0.32187
						CHANNELS 3 Zrotation Yrotation Xrotation
						JOINT RightForeArm
						{
							OFFSET -5.25396 -0.00000 -0.00000
							CHANNELS 3 Zrotation Yrotation Xrotation
							JOINT RightHand
							{
								OFFSET -3.10567 -0.00000 0.00000
								CHANNELS 3 Zrotation Yrotation Xrotation
								JOINT RightFingerBase
								{
									OFFSET 0 0 0
									CHANNELS 3 Zrotation Yrotation Xrotation
									JOINT RightHandIndex1
									{
										OFFSET -0.49868 -0.00000 0.00000
										CHANNELS 3 Zrotation Yrotation Xrotation
										End Site
										{
											OFFSET -0.40204 -0.00000 0.00000
										}
									}
								}
								JOINT RThumb
								{
									OFFSET 0 0 0
									CHANNELS 3 Zrotation Yrotation Xrotation
									End Site
									{
										OFFSET -0.40818 -0.00000 0.40818
									}
								}
							}
						}
					}
				}
			}
		}
	}
}
MOTION
Frames: 14
Frame Time: 0.142857
0.00 0.00 0.00 0 0 0 0 0 0 -21 0 0 0 0 0 0 0 0 0 0 0 0 0 0 21 0 0 0 0 0 0 0 0 0 0 0 0 0 0 0 0 0 0 0 0 0 0 -16 0 0 21 0 0 11 0 0 0 -8 0 0 0 0 0 0 0 0 0 0 0 0 0 0 0 0 0 0 0 0 8 0 0 0 0 0 0 0 0 0 0 0 0 0 0 0 0 0
0.00 0.00 0.00 -3.0661 55.8035 10.7051 0.0000 0.0000 0.0000 -16.1963 -24.1131 -22.6062 10.5419 17.7035 61.2846 -0.3979 -13.3955 12.9510 0.3033 -3.5408 -9.7881 0.0000 0.0000 0.0000 16.5851 31.1549 -25.7204 -3.7661 -11.8424 35.1769 -0.7000 -2.2428 -16.7723 -0.7419 5.5024 -15.3474 9.5092 2.4935 -12.2845 -0.1875 2.3778 -5.2922 -5.2252 1.1344 1.6539 11.7199 9.9767 -13.2707 -9.0325 15.1287 29.9953 -2.9443 7.0870 14.0857 -0.0000 -0.0000 0.0000 -83.0560 11.6690 17.6799 14.3943 -23.2955 -2.9823 -0.0000 0.0000 -40.0232 16.5878 -3.8735 -1.1528 -7.1250 0.0000 -0.0000 -7.5896 25.9280 3.5365 -0.0000 -0.0000 0.0000 82.0731 -2.0868 26.9814 -16.0632 25.6062 -3.6732 0.0000 -0.0000 -5.9501 -17.5562 -12.8043 4.0108 7.1250 -0.0000 -0.0000 8.8587 -43.2122 0.3942
0.00 0.00 0.00 -5.4697 62.3180 8.1910 0.0000 0.0000 0.0000 -15.2154 -17.7526 -41.2233 10.1471 17.4917 59.9788 -0.0538 -6.6518 -3.1455 1.3412 -7.3324 -20.7039 0.0000 0.0000 0.0000 22.4032 24.1059 -20.5890 -3.5304 -11.5079 34.0125 -1.0984 -2.0540 -20.6374 -0.3678 3.8958 -10.7836 12.0936 1.5178 -10.2323 1.7594 0.9925 -4.4265 -4.8258 0.4446 1.2038 11.7835 10.3245 -13.3394 -10.5411 15.9369 28.7232 -3.3726 7.2802 13.8328 0.0000 -0.0000 0.0000 -81.8114 9.2417 29.4304 17.8323 -27.9419 -4.4704 -0.0000 0.0000 -35.3285 7.7903 -5.4641 -0.7464 -7.1250 0.0000 -0.0000 -14.0000 24.4619 7.1523 0.0000 -0.0000 0.0000 79.6352 1.9618 27.6149 -16.9525 26.7951 -4.0659 0.0000 -0.0000 -16.7463 -21.0537 -17.7175 6.6815 7.1250 -0.0000 -0.0000 6.7907 -48.7584 -0.6322
0.00 0.00 0.00 -12.0205 67.6032 4.2365 0.0000 0.0000 0.0000 -13.0486 -17.9626 -48.6338 5.0739 13.4666 41.1411 -0.0245 6.6750 -8.8863 0.5419 -4.7166 -13.1020 0.0000 0.0000 0.0000 26.6909 18.7058 -17.0213 -2.6136 -10.0416 29.1116 -1.2358 -2.5114 -22.0401 -0.4032 4.0768 -11.2929 13.4352 1.5485 -10.8538 2.7195 0.8976 -4.9124 -4.5550 0.3872 0.9852 11.7862 10.2782 -14.5457 -9.2438 15.3413 29.2537 -2.9236 7.1118 14.0966 -0.0000 0.0000 0.0000 -80.7406 9.4678 31.0538 21.8970 -32.8604 -6.5298 -0.0000 0.0000 -39.2062 11.1853 -7.5147 -1.4814 -7.1250 0.0000 -0.0000 -11.3657 22.3653 6.3077 -0.0000 0.0000 0.0000 80.8029 0.7306 23.0867 -16.6410 26.3820 -3.9265 0.0000 -0.0000 -21.6656 -20.8790 -20.3304 7.5492 7.1250 -0.0000 -0.0000 7.7206 -51.4500 -1.2327
0.00 0.00 0.00 -1.0517 79.0936 16.8308 0.0000 0.0000 0.0000 -19.7920 -22.8276 -37.8101 2.5749 9.9729 28.8890 -0.1036 6.5780 -5.9030 0.0639 1.6307 4.4861 0.0000 0.0000 0.0000 24.9296 8.0270 -15.9464 -6.2742 -14.6889 46.0725 -0.1045 -1.7438 -7.0091 -2.7190 10.2256 -29.7103 -5.1971 0.5371 -14.8045 -3.1570 1.8381 -5.9632 -0.0757 1.0841 1.9331 12.6256 10.3479 -14.9431 -2.7698 12.5605 24.8066 -1.1545 6.6774 11.5734 0.0000 0.0000 0.0000 -78.1267 8.6983 19.8254 12.0788 -19.9227 -2.1291 -0.0000 0.0000 -36.2924 22.4108 -2.3608 -0.9732 -7.1250 0.0000 -0.0000 -3.2106 27.4224 1.3732 0.0000 0.0000 0.0000 86.6767 -11.2433 19.7619 -12.5035 20.5554 -2.2760 0.0000 -0.0000 -1.1017 -13.7855 -14.4479 3.5030 7.1250 -0.0000 -0.0000 12.6438 -44.4610 0.1710
0.00 0.00 0.00 17.0876 83.8857 35.3909 0.0000 0.0000 0.0000 -24.7180 -21.5125 -31.3755 2.0731 9.0168 25.8479 0.1612 0.9567 -7.9963 0.0672 1.6723 4.6009 0.0000 0.0000 0.0000 18.1931 10.6523 -33.0041 -11.8012 -18.3053 65.3573 -0.0640 -2.2652 -6.1716 -1.0710 6.5789 -18.4737 -9.3436 -0.1695 -13.3724 -4.5415 1.4236 -5.8564 0.6882 0.9734 1.1987 11.6537 9.8650 -14.8847 -2.0917 11.8582 23.4055 -0.9261 6.3352 10.8545 0.0000 0.0000 0.0000 -75.6922 6.4036 31.7173 13.2119 -21.5969 -2.5307 -0.0000 0.0000 -38.7784 17.0330 -2.3994 -0.7348 -7.1250 0.0000 -0.0000 -7.3336 27.4486 3.1515 0.0000 0.0000 0.0000 84.1735 -10.6482 26.3723 -14.2500 23.0910 -2.9255 0.0000 -0.0000 -1.8291 -16.6651 -13.9540 4.1288 7.1250 -0.0000 -0.0000 9.9230 -44.2915 0.1753
0.00 0.00 0.00 170.9670 84.1220 190.1150 0.0000 0.0000 0.0000 -24.6620 -23.0584 -22.8419 1.9312 8.7212 24.9271 0.4654 -6.0629 -12.2341 0.0383 1.2638 3.4749 0.0000 0.0000 0.0000 4.6481 27.1844 -46.5225 -6.8948 -15.2427 48.4755 0.2666 -15.1948 -18.4996 -0.7071 5.3746 -14.9800 -8.3289 -0.2938 -12.5678 -3.1117 0.9948 -5.3608 1.5650 0.7251 1.3203 10.8948 9.7900 -15.2084 -2.7917 12.1164 23.3724 -1.0034 6.3072 10.9090 -0.0000 0.0000 0.0000 -79.1486 -0.9459 36.6678 16.4642 -26.1460 -3.8483 -0.0000 0.0000 -42.7972 19.6671 -4.1450 -1.4798 -7.1250 0.0000 -0.0000 -5.2577 25.5757 2.4827 -0.0000 0.0000 0.0000 82.3450 -6.5041 23.6383 -18.3607 28.6166 -4.7207 0.0000 -0.0000 -9.3858 -20.1226 -14.3750 5.1975 7.1250 -0.0000 -0.0000 6.8709 -45.1352 -0.0230
0.00 0.00 0.00 180.2470 34.9068 197.9280 0.0000 0.0000 0.0000 -18.4638 -21.2829 -37.2234 2.9610 10.6316 31.0473 0.1024 0.6471 -6.3156 0.2397 -3.1506 -8.6982 0.0000 0.0000 0.0000 22.6159 5.8647 -21.6141 -8.5893 -16.5361 54.6587 -0.1924 -6.9696 8.5909 -1.7579 8.3425 -23.7592 -4.2101 -0.5680 -13.4497 -1.3059 0.3831 -6.2026 1.0691 0.5082 1.0107 10.6310 7.8871 -19.7280 -4.0704 10.0843 28.3119 -1.4997 5.3254 13.6517 -0.0000 -0.0000 0.0000 -81.2875 5.6437 29.2415 12.1526 -20.0331 -2.1543 -0.0000 0.0000 -37.7274 17.6178 -1.5463 -0.4910 -7.1250 0.0000 -0.0000 -6.9359 28.3318 2.8325 -0.0000 -0.0000 0.0000 82.9328 -12.4690 27.9521 -14.6521 23.6592 -3.0850 0.0000 -0.0000 -4.4633 -10.8121 -14.1523 2.6735 7.1250 -0.0000 -0.0000 15.2082 -43.8377 0.4472
0.00 0.00 0.00 178.9440 9.2419 196.7140 0.0000 0.0000 0.0000 -15.2424 -20.5507 -45.1413 1.2256 7.0213 19.7786 0.0447 0.9990 -4.4946 1.3576 -7.3755 -20.8327 0.0000 0.0000 0.0000 21.7115 18.7332 -15.4573 -3.0403 -10.7599 31.4745 -1.4526 0.1930 -22.7422 -1.2494 7.0868 -19.9729 11.4297 1.9307 -9.7972 1.6242 2.0593 -4.3449 -4.4800 1.1537 1.1932 7.1561 4.9293 -17.4963 -8.8860 10.0684 30.4533 -2.8513 4.7531 14.1819 -0.0000 -0.0000 0.0000 -82.5404 13.1702 22.8280 15.8934 -25.3759 -3.6002 -0.0000 0.0000 -36.9001 9.0799 -3.6045 -0.5757 -7.1250 0.0000 -0.0000 -13.2430 26.2800 6.1666 -0.0000 -0.0000 0.0000 79.1308 6.2742 25.3076 -14.3268 23.2000 -2.9556 0.0000 -0.0000 -8.4189 -20.8147 -18.0503 6.7181 7.1250 -0.0000 -0.0000 7.1095 -49.0694 -0.7168
0.00 0.00 0.00 175.7260 -3.1664 199.6940 0.0000 0.0000 0.0000 -28.2414 -13.7619 -5.8809 0.1678 2.6393 7.2762 0.0311 -10.5721 -7.8955 0.8029 -5.7190 -15.9712 0.0000 0.0000 0.0000 -6.5313 33.4857 -54.3822 -3.0375 -10.7556 31.4599 0.5601 -16.6836 -17.1927 -0.5873 4.9067 -13.6427 -10.7919 -1.3958 -13.5063 -1.4737 -1.1847 -5.1160 4.3289 -0.8397 2.2387 5.5876 4.2048 -16.8976 -0.6252 3.3555 27.2891 -0.7637 1.5717 11.8837 0.0000 -0.0000 0.0000 -81.6795 -5.4035 40.7084 18.3461 -28.5981 -4.7138 -0.0000 0.0000 -40.3307 16.4771 -7.5141 -2.2150 -7.1250 0.0000 -0.0000 -7.5285 22.1704 4.1661 0.0000 -0.0000 0.0000 82.7563 -7.5749 25.0653 -19.5643 30.1139 -5.3110 0.0000 -0.0000 -9.2962 -17.1372 -14.1019 4.2965 7.1250 -0.0000 -0.0000 9.5318 -44.4968 0.1195
0.00 0.00 0.00 172.1420 -72.6834 202.8990 0.0000 0.0000 0.0000 -28.6217 -19.5140 1.1654 1.4700 7.6617 21.6910 -1.5963 -22.1514 3.5517 0.0394 -1.2807 -3.5216 0.0000 0.0000 0.0000 -3.2250 38.9346 -42.9329 -4.2051 -12.4284 37.2648 -0.2121 0.0725 -8.6726 -1.4364 7.5775 -21.4380 0.1962 2.1742 -16.6725 -1.0073 2.5093 -5.5576 -0.6970 1.0759 3.4667 14.8969 12.4849 -10.5224 -7.2316 16.1495 27.7691 -2.7406 7.7462 12.8794 0.0000 -0.0000 0.0000 -76.1067 6.2764 35.7865 17.8324 -27.9420 -4.4704 -0.0000 0.0000 -45.2077 20.5933 -6.9864 -2.6168 -7.1250 0.0000 -0.0000 -4.5296 22.5289 2.4559 0.0000 -0.0000 0.0000 84.5061 -6.2957 1.1670 -11.3819 18.8712 -1.8976 0.0000 0.0000 11.0355 2.2547 -4.0428 -0.1590 7.1250 -0.0000 -0.0000 23.1818 -33.2614 7.1837
0.00 0.00 0.00 181.0880 -78.2304 192.9420 0.0000 0.0000 0.0000 -23.2040 -17.5919 -11.9428 6.0834 14.5087 45.3157 1.2373 -10.2912 27.0357 0.1704 2.6596 7.3324 0.0000 0.0000 0.0000 9.0909 34.1177 -31.5920 -4.1821 -12.3988 37.1579 -0.5845 -0.5892 -14.6683 -1.1136 6.7042 -18.8418 9.8819 4.3719 -14.9630 -1.0184 4.0425 -6.5081 -5.9661 1.6887 2.1666 17.3474 13.5496 -10.7287 -8.0638 17.5766 28.6882 -3.0907 8.5267 13.8950 -0.0000 -0.0000 0.0000 -75.3016 12.1844 16.5875 11.2001 -18.5943 -1.8392 -0.0000 0.0000 -41.5223 30.8513 -1.6470 -0.9836 -7.1250 0.0000 -0.0000 3.3050 28.0562 -1.3642 -0.0000 -0.0000 0.0000 84.0348 -5.1597 10.9056 -12.1869 20.0843 -2.1660 0.0000 -0.0000 -0.4442 -0.6115 -5.8951 0.0628 7.1250 -0.0000 -0.0000 21.4405 -35.1381 5.5186
0.00 0.00 0.00 365.0000 9.2222 20.9926 0.0000 0.0000 0.0000 -32.1822 -12.0607 8.0560 0.0000 0.0000 0.0000 -0.4676 -13.1656 -0.9141 0.5194 -4.6188 -12.8245 0.0000 0.0000 0.0000 -4.0937 34.9508 -51.8134 -3.7936 -11.8806 35.3110 0.2030 -7.9645 -3.2170 -1.4572 7.6297 -21.5950 -9.0294 -1.9205 -19.8038 -1.3737 -0.6170 -5.7776 3.5057 -0.3072 4.8546 5.9536 4.4568 -18.3136 0.1154 4.6986 36.9786 -0.0695 2.8626 16.5582 -0.0000 -0.0000 0.0000 -81.9566 2.8795 34.3541 15.6122 -24.9920 -3.4805 -0.0000 0.0000 -39.6186 16.9347 -9.1249 -2.7645 -7.1250 0.0000 -0.0000 -7.1651 20.4831 4.2376 -0.0000 -0.0000 0.0000 81.9347 -8.1177 7.2161 -11.3289 18.7907 -1.8805 0.0000 0.0000 6.9129 -6.1653 -13.2489 1.4182 7.1250 -0.0000 -0.0000 18.9830 -42.4829 1.2273
0.00 0.00 0.00 540.4600 37.4763 201.1960 0.0000 0.0000 0.0000 -25.5997 -18.2959 -41.0637 2.8109 10.3825 30.2246 0.0467 4.9721 -8.4781 0.0049 -0.4518 -1.2413 0.0000 0.0000 0.0000 28.0137 12.3291 -19.7745 -2.8999 -10.5312 30.7145 -0.3869 -19.4462 -30.3083 -0.6295 5.0770 -14.1282 4.6145 5.9455 -13.9990 -4.5142 7.8865 -4.8609 -5.9318 4.1150 3.8881 24.0293 23.1220 3.7466 -19.5756 34.0308 4.7706 -5.4430 16.8363 8.2133 0.0000 0.0000 0.0000 -73.0582 1.9206 39.8904 16.4184 -26.0847 -3.8281 -0.0000 0.0000 -45.4398 19.0898 -3.8895 -1.3448 -7.1250 0.0000 -0.0000 -5.7010 25.8594 2.6560 0.0000 0.0000 0.0000 90.1608 -3.2779 17.0024 -14.2873 23.1439 -2.9401 0.0000 -0.0000 -2.3417 -15.0029 -14.1416 3.7463 7.1250 -0.0000 -0.0000 11.4676 -44.2925 0.2030
